<svg xmlns="http://www.w3.org/2000/svg" xmlns:xlink="http://www.w3.org/1999/xlink" width="500" zoomAndPan="magnify" viewBox="0 0 375 374.999991" height="500" preserveAspectRatio="xMidYMid meet" version="1.0"><defs><g/><clipPath id="59f5cb8696"><path d="M 82 236 L 109 236 L 109 240.625 L 82 240.625 Z M 82 236 " clip-rule="nonzero"/></clipPath><clipPath id="c2c6b73064"><path d="M 180 137 L 196.265625 137 L 196.265625 155 L 180 155 Z M 180 137 " clip-rule="nonzero"/></clipPath><clipPath id="b25afbcf9c"><path d="M 130 101.125 L 148 101.125 L 148 118 L 130 118 Z M 130 101.125 " clip-rule="nonzero"/></clipPath><clipPath id="9a33557d4a"><path d="M 46.265625 162 L 52 162 L 52 170 L 46.265625 170 Z M 46.265625 162 " clip-rule="nonzero"/></clipPath><clipPath id="57553584dd"><path d="M 46.265625 139 L 65 139 L 65 167 L 46.265625 167 Z M 46.265625 139 " clip-rule="nonzero"/></clipPath></defs><path fill="#f1471d" d="M 77.816406 227.261719 L 113.144531 227.261719 L 113.144531 223.386719 L 77.816406 223.386719 L 77.816406 227.261719 " fill-opacity="1" fill-rule="nonzero"/><path fill="#51ade5" d="M 80.257812 233.949219 L 110.699219 233.949219 L 110.699219 230.074219 L 80.257812 230.074219 L 80.257812 233.949219 " fill-opacity="1" fill-rule="nonzero"/><g clip-path="url(#59f5cb8696)"><path fill="#7f248d" d="M 82.726562 240.632812 L 108.230469 240.632812 L 108.230469 236.757812 L 82.726562 236.757812 L 82.726562 240.632812 " fill-opacity="1" fill-rule="nonzero"/></g><path fill="#fbc108" d="M 180.492188 115.511719 L 187.863281 121.230469 L 180.082031 131.179688 L 173.761719 126.277344 L 180.492188 115.511719 " fill-opacity="1" fill-rule="nonzero"/><path fill="#e91348" d="M 137.242188 159.519531 L 143.757812 164.574219 C 142.453125 171.265625 139.800781 177.46875 136.085938 182.894531 L 125.425781 174.625 L 137.242188 159.519531 " fill-opacity="1" fill-rule="nonzero"/><path fill="#51ade5" d="M 77.675781 137.589844 L 58.453125 122.683594 C 62.828125 117.679688 68.199219 113.574219 74.253906 110.667969 L 90.597656 123.34375 L 77.675781 137.589844 " fill-opacity="1" fill-rule="nonzero"/><path fill="#40b93c" d="M 103.484375 157.605469 L 115.300781 142.503906 L 125.308594 150.265625 L 115.089844 166.609375 L 103.484375 157.605469 " fill-opacity="1" fill-rule="nonzero"/><path fill="#51ade5" d="M 159.839844 143.078125 L 167.703125 149.175781 L 159.917969 159.125 L 153.109375 153.84375 L 159.839844 143.078125 " fill-opacity="1" fill-rule="nonzero"/><path fill="#f1471d" d="M 83.675781 166.511719 L 64.753906 151.835938 L 77.675781 137.589844 L 93.890625 150.167969 L 83.675781 166.511719 " fill-opacity="1" fill-rule="nonzero"/><path fill="#7f248d" d="M 115.089844 166.609375 L 125.425781 174.625 L 113.609375 189.726562 L 104.871094 182.953125 L 115.089844 166.609375 " fill-opacity="1" fill-rule="nonzero"/><path fill="#51ade5" d="M 103.484375 157.605469 L 91.667969 172.710938 L 83.675781 166.511719 L 93.890625 150.167969 L 103.484375 157.605469 " fill-opacity="1" fill-rule="nonzero"/><path fill="#fbc108" d="M 125.425781 174.625 L 136.085938 182.894531 C 134.808594 184.757812 133.410156 186.53125 131.894531 188.199219 C 128.519531 191.914062 125.554688 194.644531 123.019531 197.027344 L 113.609375 189.726562 L 125.425781 174.625 " fill-opacity="1" fill-rule="nonzero"/><g clip-path="url(#c2c6b73064)"><path fill="#f1471d" d="M 196.242188 143.523438 L 189.511719 154.289062 L 180.8125 147.542969 L 188.597656 137.589844 L 196.242188 143.523438 " fill-opacity="1" fill-rule="nonzero"/></g><path fill="#fbc108" d="M 90.597656 123.34375 L 74.253906 110.667969 C 80.535156 107.65625 87.558594 105.933594 94.972656 105.859375 C 96.519531 105.84375 98.054688 105.90625 99.566406 106.035156 L 103.523438 109.101562 L 90.597656 123.34375 " fill-opacity="1" fill-rule="nonzero"/><path fill="#e91348" d="M 90.597656 123.34375 L 103.523438 109.101562 L 114.328125 117.480469 L 104.109375 133.824219 L 90.597656 123.34375 " fill-opacity="1" fill-rule="nonzero"/><path fill="#7f248d" d="M 134.835938 128.042969 L 143.242188 134.566406 L 133.027344 150.910156 L 123.019531 143.148438 L 134.835938 128.042969 " fill-opacity="1" fill-rule="nonzero"/><path fill="#fbc108" d="M 154.484375 158.328125 C 154.640625 159.898438 154.722656 161.488281 154.722656 163.097656 C 154.722656 166.339844 154.40625 169.507812 153.8125 172.574219 L 147.292969 167.519531 L 154.484375 158.328125 " fill-opacity="1" fill-rule="nonzero"/><path fill="#40b93c" d="M 111.515625 129.992188 L 121.734375 113.648438 L 134.523438 123.566406 L 122.707031 138.667969 L 111.515625 129.992188 " fill-opacity="1" fill-rule="nonzero"/><path fill="#40b93c" d="M 158.882812 106.484375 C 160.777344 109.011719 162.4375 111.726562 163.824219 114.605469 L 156.988281 110.398438 L 158.882812 106.484375 " fill-opacity="1" fill-rule="nonzero"/><g clip-path="url(#b25afbcf9c)"><path fill="#f1471d" d="M 130.769531 107.152344 L 134.535156 101.132812 C 139.578125 103.78125 144.121094 107.28125 147.964844 111.4375 L 143.558594 117.070312 L 130.769531 107.152344 " fill-opacity="1" fill-rule="nonzero"/></g><path fill="#e91348" d="M 102.539062 104.882812 C 104.550781 105.054688 106.535156 105.351562 108.476562 105.761719 L 106.492188 107.949219 L 102.539062 104.882812 " fill-opacity="1" fill-rule="nonzero"/><path fill="#51ade5" d="M 145.648438 123.894531 L 150.054688 118.265625 C 152.445312 120.851562 154.5625 123.6875 156.367188 126.730469 L 154.058594 130.417969 L 145.648438 123.894531 " fill-opacity="1" fill-rule="nonzero"/><path fill="#51ade5" d="M 113.609375 104.46875 L 115.59375 102.285156 C 120.027344 103.222656 124.253906 104.769531 128.175781 106.832031 L 124.414062 112.851562 L 113.609375 104.46875 " fill-opacity="1" fill-rule="nonzero"/><path fill="#51ade5" d="M 81.347656 220.578125 L 78.347656 220.578125 C 78.347656 216.15625 77.953125 212.78125 77.183594 210.011719 L 84.4375 215.636719 L 81.347656 220.578125 " fill-opacity="1" fill-rule="nonzero"/><path fill="#fbc108" d="M 90.804688 220.578125 L 89.476562 220.578125 L 89.976562 219.933594 Z M 90.804688 220.578125 " fill-opacity="1" fill-rule="nonzero"/><path fill="#e91348" d="M 89.976562 219.933594 L 89.476562 220.578125 L 81.347656 220.578125 L 84.4375 215.636719 L 89.976562 219.933594 " fill-opacity="1" fill-rule="nonzero"/><path fill="#51ade5" d="M 89.976562 219.933594 L 84.4375 215.636719 L 94.65625 199.292969 L 101.792969 204.832031 L 89.976562 219.933594 " fill-opacity="1" fill-rule="nonzero"/><path fill="#40b93c" d="M 101.792969 204.832031 L 113.054688 213.566406 C 112.761719 215.582031 112.613281 217.886719 112.613281 220.574219 L 112.613281 220.578125 L 90.804688 220.578125 L 89.976562 219.933594 L 101.792969 204.832031 " fill-opacity="1" fill-rule="nonzero"/><path fill="#f1471d" d="M 94.65625 199.292969 L 84.4375 215.636719 L 77.183594 210.011719 C 75.953125 205.582031 73.75 202.703125 70.640625 199.589844 L 79.851562 187.8125 L 94.65625 199.292969 " fill-opacity="1" fill-rule="nonzero"/><g clip-path="url(#9a33557d4a)"><path fill="#51ade5" d="M 48.503906 169.75 C 47.742188 167.300781 47.167969 164.769531 46.792969 162.175781 L 51.832031 166.082031 L 48.503906 169.75 " fill-opacity="1" fill-rule="nonzero"/></g><path fill="#fbc108" d="M 73.457031 182.855469 L 65.847656 195.027344 C 63.886719 193.179688 61.707031 191.070312 59.316406 188.472656 C 54.433594 183.175781 50.699219 176.800781 48.503906 169.75 L 51.832031 166.082031 L 73.457031 182.855469 " fill-opacity="1" fill-rule="nonzero"/><path fill="#51ade5" d="M 73.457031 182.855469 L 79.851562 187.8125 L 70.640625 199.589844 C 69.226562 198.175781 67.628906 196.707031 65.847656 195.027344 L 73.457031 182.855469 " fill-opacity="1" fill-rule="nonzero"/><g clip-path="url(#57553584dd)"><path fill="#fbc108" d="M 51.832031 166.082031 L 46.792969 162.175781 C 46.460938 159.863281 46.289062 157.5 46.289062 155.097656 C 46.289062 149.636719 47.179688 144.382812 48.816406 139.476562 L 64.753906 151.835938 L 51.832031 166.082031 " fill-opacity="1" fill-rule="nonzero"/></g><path fill="#7f248d" d="M 113.609375 189.726562 L 123.019531 197.027344 C 117.636719 202.082031 114.214844 205.566406 113.054688 213.566406 L 101.792969 204.832031 L 113.609375 189.726562 " fill-opacity="1" fill-rule="nonzero"/><path fill="#40b93c" d="M 104.871094 182.953125 L 94.65625 199.292969 L 79.851562 187.8125 L 91.667969 172.710938 L 104.871094 182.953125 " fill-opacity="1" fill-rule="nonzero"/><path fill="#7f248d" d="M 64.753906 151.835938 L 83.675781 166.511719 L 73.457031 182.855469 L 51.832031 166.082031 L 64.753906 151.835938 " fill-opacity="1" fill-rule="nonzero"/><path fill="#e91348" d="M 177.382812 170.925781 L 165.359375 174.792969 L 163.511719 169.128906 L 175.121094 164 L 177.382812 170.925781 " fill-opacity="1" fill-rule="nonzero"/><path fill="#e91348" d="M 91.667969 172.710938 L 79.851562 187.8125 L 73.457031 182.855469 L 83.675781 166.511719 L 91.667969 172.710938 " fill-opacity="1" fill-rule="nonzero"/><g fill="#7f248d" fill-opacity="1"><g transform="translate(139.54066, 224.259535)"><g><path d="M 15.828125 -4.742188 L 7.320312 -4.742188 L 7.320312 -9.515625 L 15.476562 -9.515625 L 15.476562 -14.257812 L 7.320312 -14.257812 L 7.320312 -18.964844 L 15.828125 -18.964844 L 15.828125 -23.703125 L 2.089844 -23.703125 L 2.089844 0 L 15.828125 0 Z M 15.828125 -4.742188 "/></g></g></g><g fill="#7f248d" fill-opacity="1"><g transform="translate(157.454358, 224.259535)"><g><path d="M 14.117188 -7.667969 C 14.117188 -5.648438 12.550781 -3.835938 10.457031 -3.835938 C 8.367188 -3.835938 6.796875 -5.648438 6.796875 -7.667969 C 6.796875 -9.691406 8.367188 -11.503906 10.457031 -11.503906 C 12.550781 -11.503906 14.117188 -9.691406 14.117188 -7.667969 Z M 19.347656 -26.144531 L 14.117188 -26.144531 L 14.117188 -13.492188 C 12.757812 -15.164062 10.804688 -15.722656 8.855469 -15.722656 C 4.496094 -15.722656 1.21875 -11.921875 1.21875 -7.667969 C 1.21875 -3.417969 4.496094 0.347656 8.855469 0.347656 C 10.804688 0.347656 13.074219 -0.277344 14.117188 -1.847656 L 14.117188 0 L 19.347656 0 Z M 19.347656 -26.144531 "/></g></g></g><g fill="#7f248d" fill-opacity="1"><g transform="translate(178.888065, 224.259535)"><g><path d="M 1.742188 -6.625 C 1.742188 -2.476562 3.417969 0.347656 7.53125 0.347656 C 9.550781 0.347656 11.191406 -0.558594 12.234375 -1.882812 L 12.234375 0 L 17.464844 0 L 17.464844 -15.375 L 12.234375 -15.375 L 12.234375 -7.667969 C 12.234375 -5.613281 10.945312 -3.835938 9.308594 -3.835938 C 7.667969 -3.835938 6.972656 -4.84375 6.972656 -6.625 L 6.972656 -15.375 L 1.742188 -15.375 Z M 1.742188 -6.625 "/></g></g></g><g fill="#7f248d" fill-opacity="1"><g transform="translate(198.439779, 224.259535)"><g><path d="M 17.605469 -7.808594 C 17.605469 -9.550781 18.40625 -11.503906 20.429688 -11.503906 C 22.171875 -11.503906 22.660156 -10.003906 22.660156 -8.503906 L 22.660156 0 L 27.886719 0 L 27.886719 -8.503906 C 27.886719 -12.480469 25.96875 -15.722656 21.960938 -15.722656 C 19.554688 -15.722656 17.847656 -15.023438 16.347656 -13.105469 C 15.269531 -14.851562 13.527344 -15.722656 11.574219 -15.722656 C 9.867188 -15.722656 8.367188 -14.816406 7.320312 -13.492188 L 7.320312 -15.375 L 2.089844 -15.375 L 2.089844 0 L 7.320312 0 L 7.320312 -7.667969 C 7.320312 -9.203125 8.367188 -11.503906 10.144531 -11.503906 C 11.886719 -11.503906 12.375 -10.003906 12.375 -8.503906 L 12.375 0 L 17.605469 0 Z M 17.605469 -7.808594 "/></g></g></g><g fill="#7f248d" fill-opacity="1"><g transform="translate(227.88934, 224.259535)"><g><path d="M 1.8125 -20.636719 C 1.8125 -18.964844 3.171875 -17.570312 4.878906 -17.570312 C 6.554688 -17.570312 7.949219 -18.964844 7.949219 -20.636719 C 7.949219 -22.34375 6.554688 -23.703125 4.878906 -23.703125 C 3.171875 -23.703125 1.8125 -22.34375 1.8125 -20.636719 Z M 7.496094 0 L 7.496094 -15.375 L 2.265625 -15.375 L 2.265625 0 Z M 7.496094 0 "/></g></g></g><g fill="#7f248d" fill-opacity="1"><g transform="translate(237.647773, 224.259535)"><g><path d="M 17.8125 -8.714844 C 17.8125 -12.898438 16.140625 -15.722656 12.027344 -15.722656 C 10.003906 -15.722656 8.367188 -14.816406 7.320312 -13.492188 L 7.320312 -15.375 L 2.089844 -15.375 L 2.089844 0 L 7.320312 0 L 7.320312 -7.667969 C 7.320312 -9.761719 8.609375 -11.503906 10.25 -11.503906 C 11.886719 -11.503906 12.585938 -10.527344 12.585938 -8.714844 L 12.585938 0 L 17.8125 0 Z M 17.8125 -8.714844 "/></g></g></g><g fill="#7f248d" fill-opacity="1"><g transform="translate(257.02524, 224.259535)"><g><path d="M 14.117188 -7.667969 C 14.117188 -5.648438 12.550781 -3.835938 10.457031 -3.835938 C 8.367188 -3.835938 6.796875 -5.648438 6.796875 -7.667969 C 6.796875 -9.691406 8.367188 -11.503906 10.457031 -11.503906 C 12.550781 -11.503906 14.117188 -9.691406 14.117188 -7.667969 Z M 19.347656 -26.144531 L 14.117188 -26.144531 L 14.117188 -13.492188 C 12.757812 -15.164062 10.804688 -15.722656 8.855469 -15.722656 C 4.496094 -15.722656 1.21875 -11.921875 1.21875 -7.667969 C 1.21875 -3.417969 4.496094 0.347656 8.855469 0.347656 C 10.804688 0.347656 13.074219 -0.277344 14.117188 -1.847656 L 14.117188 0 L 19.347656 0 Z M 19.347656 -26.144531 "/></g></g></g><g fill="#7f248d" fill-opacity="1"><g transform="translate(278.458947, 224.259535)"><g><path d="M 16.347656 -4.148438 L 8.890625 -4.148438 L 16.28125 -15.375 L 0.871094 -15.375 L 0.871094 -11.398438 L 8.261719 -11.398438 L 0.175781 0 L 16.347656 0 Z M 16.347656 -4.148438 "/></g></g></g><g fill="#7f248d" fill-opacity="1"><g transform="translate(217.423471, 267.009532)"><g/></g></g><g fill="#e63b11" fill-opacity="1"><g transform="translate(129.316606, 240.813368)"><g><path d="M 5.296875 -1.730469 C 4.085938 -1.730469 3.039062 -2.335938 2.972656 -3.660156 L 0.492188 -3.660156 C 0.507812 -0.949219 2.746094 0.261719 5.195312 0.261719 C 7.46875 0.261719 9.804688 -0.703125 9.804688 -3.316406 C 9.804688 -7.550781 3.382812 -6.128906 3.382812 -8.105469 C 3.382812 -8.9375 4.347656 -9.265625 5.035156 -9.265625 C 6.257812 -9.265625 6.929688 -8.890625 7.058594 -7.730469 L 9.429688 -7.730469 C 9.347656 -10.261719 7.289062 -11.277344 5 -11.277344 C 2.972656 -11.277344 0.851562 -10.199219 0.851562 -7.910156 C 0.851562 -3.808594 7.273438 -5.195312 7.273438 -3.039062 C 7.273438 -2.042969 6.0625 -1.730469 5.296875 -1.730469 Z M 5.296875 -1.730469 "/></g></g></g><g fill="#e63b11" fill-opacity="1"><g transform="translate(142.878205, 240.813368)"><g><path d="M 14.839844 0 L 12.683594 -11.113281 L 9.773438 -11.113281 L 7.46875 -3.316406 L 5.148438 -11.113281 L 2.238281 -11.113281 L 0.0820312 0 L 2.777344 0 L 4.085938 -7.664062 L 6.257812 0 L 8.660156 0 L 10.835938 -7.664062 L 12.140625 0 Z M 14.839844 0 "/></g></g></g><g fill="#e63b11" fill-opacity="1"><g transform="translate(161.062872, 240.813368)"><g><path d="M 7.027344 -4.25 L 4.214844 -4.25 L 5.621094 -8.203125 Z M 11.179688 0 L 6.667969 -11.113281 L 4.59375 -11.113281 L 0.0820312 0 L 2.710938 0 L 3.511719 -2.238281 L 7.746094 -2.238281 L 8.546875 0 Z M 11.179688 0 "/></g></g></g><g fill="#e63b11" fill-opacity="1"><g transform="translate(175.588293, 240.813368)"><g><path d="M 3.433594 -3.972656 L 3.449219 -3.972656 L 6.097656 0 L 9.199219 0 L 6.015625 -4.085938 C 7.417969 -4.429688 8.546875 -5.671875 8.546875 -7.550781 C 8.546875 -9.660156 6.945312 -11.113281 5.148438 -11.113281 L 0.980469 -11.113281 L 0.980469 0 L 3.433594 0 Z M 4.738281 -9.183594 C 5.457031 -9.183594 6.210938 -8.5625 6.210938 -7.550781 C 6.210938 -6.488281 5.457031 -5.898438 4.738281 -5.898438 L 3.433594 -5.898438 L 3.433594 -9.183594 Z M 4.738281 -9.183594 "/></g></g></g><g fill="#e63b11" fill-opacity="1"><g transform="translate(187.859363, 240.813368)"><g><path d="M 5.703125 -8.890625 L 8.875 -8.890625 L 8.875 -11.113281 L 0.0820312 -11.113281 L 0.0820312 -8.890625 L 3.253906 -8.890625 L 3.253906 0 L 5.703125 0 Z M 5.703125 -8.890625 "/></g></g></g><g fill="#e63b11" fill-opacity="1"><g transform="translate(200.081417, 240.813368)"><g/></g></g><g fill="#e63b11" fill-opacity="1"><g transform="translate(207.435373, 240.813368)"><g><path d="M 0.980469 0 L 7.417969 0 L 7.417969 -2.222656 L 3.433594 -2.222656 L 3.433594 -11.113281 L 0.980469 -11.113281 Z M 0.980469 0 "/></g></g></g><g fill="#e63b11" fill-opacity="1"><g transform="translate(218.693618, 240.813368)"><g><path d="M 7.417969 -2.222656 L 3.433594 -2.222656 L 3.433594 -4.460938 L 7.257812 -4.460938 L 7.257812 -6.683594 L 3.433594 -6.683594 L 3.433594 -8.890625 L 7.417969 -8.890625 L 7.417969 -11.113281 L 0.980469 -11.113281 L 0.980469 0 L 7.417969 0 Z M 7.417969 -2.222656 "/></g></g></g><g fill="#e63b11" fill-opacity="1"><g transform="translate(230.360262, 240.813368)"><g><path d="M 7.027344 -4.25 L 4.214844 -4.25 L 5.621094 -8.203125 Z M 11.179688 0 L 6.667969 -11.113281 L 4.59375 -11.113281 L 0.0820312 0 L 2.710938 0 L 3.511719 -2.238281 L 7.746094 -2.238281 L 8.546875 0 Z M 11.179688 0 "/></g></g></g><g fill="#e63b11" fill-opacity="1"><g transform="translate(244.885686, 240.813368)"><g><path d="M 3.433594 -3.972656 L 3.449219 -3.972656 L 6.097656 0 L 9.199219 0 L 6.015625 -4.085938 C 7.417969 -4.429688 8.546875 -5.671875 8.546875 -7.550781 C 8.546875 -9.660156 6.945312 -11.113281 5.148438 -11.113281 L 0.980469 -11.113281 L 0.980469 0 L 3.433594 0 Z M 4.738281 -9.183594 C 5.457031 -9.183594 6.210938 -8.5625 6.210938 -7.550781 C 6.210938 -6.488281 5.457031 -5.898438 4.738281 -5.898438 L 3.433594 -5.898438 L 3.433594 -9.183594 Z M 4.738281 -9.183594 "/></g></g></g><g fill="#e63b11" fill-opacity="1"><g transform="translate(257.156761, 240.813368)"><g><path d="M 9.707031 0 L 9.707031 -11.113281 L 7.257812 -11.113281 L 7.257812 -4.183594 L 3.433594 -11.113281 L 0.980469 -11.113281 L 0.980469 0 L 3.433594 0 L 3.433594 -6.929688 L 7.257812 0 Z M 9.707031 0 "/></g></g></g><g fill="#e63b11" fill-opacity="1"><g transform="translate(271.110427, 240.813368)"><g><path d="M 3.433594 0 L 3.433594 -11.113281 L 0.980469 -11.113281 L 0.980469 0 Z M 3.433594 0 "/></g></g></g><g fill="#e63b11" fill-opacity="1"><g transform="translate(278.791106, 240.813368)"><g><path d="M 9.707031 0 L 9.707031 -11.113281 L 7.257812 -11.113281 L 7.257812 -4.183594 L 3.433594 -11.113281 L 0.980469 -11.113281 L 0.980469 0 L 3.433594 0 L 3.433594 -6.929688 L 7.257812 0 Z M 9.707031 0 "/></g></g></g><g fill="#e63b11" fill-opacity="1"><g transform="translate(292.744772, 240.813368)"><g><path d="M 6.535156 -8.988281 C 7.617188 -8.988281 8.726562 -8.546875 9.265625 -7.371094 L 11.960938 -7.371094 C 11.195312 -9.675781 8.988281 -11.277344 6.535156 -11.277344 C 3.398438 -11.277344 0.816406 -8.695312 0.816406 -5.554688 C 0.816406 -2.417969 3.398438 0.164062 6.535156 0.164062 C 9.707031 0.164062 12.242188 -2.402344 12.242188 -5.554688 L 12.242188 -5.933594 L 6.765625 -5.933594 L 6.765625 -4.085938 L 9.59375 -4.085938 C 8.988281 -2.402344 7.617188 -2.058594 6.535156 -2.058594 C 4.773438 -2.058594 3.300781 -3.644531 3.300781 -5.523438 C 3.300781 -7.402344 4.773438 -8.988281 6.535156 -8.988281 Z M 6.535156 -8.988281 "/></g></g></g></svg>